<svg width="99" height="172" viewBox="0 0 99 172" fill="none" xmlns="http://www.w3.org/2000/svg">
<g opacity="0.08" clip-path="url(#clip0_1105_10303)">
<path d="M54.9332 5.46623C56.1459 6.10452 57.3586 6.67897 58.6352 7.1896C59.6139 7.61512 60.5714 8.01937 61.5075 8.40234C65.9755 10.2534 70.4435 12.1044 74.5924 14.4661C74.8051 14.5937 74.9966 14.7214 75.1668 14.849C79.1242 17.1469 82.7624 19.9553 86.4007 22.7638C87.2304 23.4021 88.0602 24.0403 88.9538 24.6786C89.9751 25.5084 91.0601 26.2743 92.2091 26.9765C94.6345 27.6786 96.9324 28.3807 99.4217 28.8275C97.7621 26.9126 95.9749 25.2531 94.2516 23.5297C93.0388 22.8914 91.8261 22.317 90.6133 21.8063C89.5921 21.4234 88.6347 20.9766 87.6772 20.5936C83.4007 18.8702 79.188 17.083 75.2306 14.849C75.0179 14.7214 74.8051 14.5937 74.5924 14.4661C70.4435 12.1044 66.6138 9.16829 62.7841 6.23217C61.9756 5.59389 61.1458 4.9556 60.2948 4.31731C59.2097 3.48754 58.1246 2.7216 56.9119 2.01948C54.5502 1.31737 52.1885 0.615257 49.6992 0.168457C51.3588 2.01949 53.146 3.74286 54.9332 5.46623Z" fill="#FFF7ED"/>
<path d="M50.974 -14.1933C50.2719 -18.9804 49.6974 -23.7676 49.6974 -28.5547C49.6974 -33.3419 50.3357 -38.129 51.0378 -42.9162C51.2932 -45.3416 51.6761 -47.7033 51.74 -50.065C51.1017 -52.4905 50.5272 -54.8521 49.6974 -57.2776C48.9315 -54.8521 48.357 -52.4905 47.7188 -50.065C47.7826 -47.7033 48.1656 -45.3416 48.4209 -42.9162C49.123 -38.129 49.7613 -33.3419 49.6974 -28.5547C49.7613 -23.7676 49.123 -18.9804 48.4847 -14.1933C48.1656 -11.8316 47.7826 -9.40616 47.7826 -7.0445C48.357 -4.61901 48.9315 -2.25735 49.6974 0.168129C50.5272 -2.25735 51.1017 -4.61901 51.6761 -7.0445C51.6761 -9.40616 51.2932 -11.8316 50.974 -14.1933Z" fill="#FFF7ED"/>
<path d="M100.764 71.9118C100.062 67.1247 99.424 62.3375 99.424 57.5504C99.4665 57.3376 99.4878 57.1036 99.4878 56.8483C99.4878 52.3164 100.062 47.7846 100.701 43.1889C101.02 40.8273 101.403 38.4018 101.403 36.0401C100.828 33.6147 100.254 31.253 99.424 28.8275C98.658 31.253 98.0198 33.6147 97.4453 36.0401C97.5091 38.4018 97.8921 40.8273 98.1474 43.1889C98.7857 47.7846 99.424 52.3164 99.424 56.8483C99.424 57.1036 99.424 57.3376 99.424 57.5504C99.424 62.3375 98.8495 67.1247 98.1474 71.9118C97.8921 74.2735 97.5091 76.6989 97.4453 79.0606C98.0198 81.4861 98.658 83.8478 99.424 86.2732C100.254 83.8478 100.828 81.4861 101.403 79.0606C101.403 76.6989 101.02 74.2735 100.764 71.9118Z" fill="#FFF7ED"/>
<path d="M57.5501 112.698C58.1459 112.315 58.7416 111.911 59.3373 111.486C60.4863 110.656 61.6352 109.762 62.8479 108.933C66.6138 105.996 70.4435 102.997 74.5924 100.635C74.9115 100.443 75.2307 100.252 75.6136 100.06C79.4433 97.8902 83.5284 96.1669 87.6772 94.5073C89.8474 93.5499 92.1452 92.7201 94.2516 91.5712C95.9749 89.8478 97.7621 88.1245 99.4217 86.2734C96.9324 86.7202 94.6345 87.4224 92.2091 88.1245C90.1665 89.3372 88.3155 90.8691 86.4007 92.3372C82.8901 95.0818 79.3795 97.7626 75.5498 99.9966C75.2306 100.188 74.9115 100.38 74.5924 100.571C70.4435 102.933 65.9755 104.784 61.5075 106.635C60.1671 107.209 58.8905 107.784 57.5501 108.358C56.9119 108.656 56.2736 108.975 55.6353 109.316C55.38 109.443 55.1885 109.507 54.9332 109.635C53.146 111.358 51.3588 113.081 49.6992 114.932C52.1885 114.486 54.5502 113.784 56.9119 113.081C57.1672 112.954 57.3587 112.826 57.5501 112.698Z" fill="#FFF7ED"/>
<path d="M44.4677 109.699C42.4252 108.486 40.1273 107.656 37.9572 106.699C33.4253 104.848 29.0212 102.997 24.8723 100.571C20.7234 98.2732 16.8937 95.3371 13.064 92.3372C11.1492 90.8691 9.29812 89.3372 7.19178 88.1245C4.83012 87.4224 2.46845 86.7202 0.0429688 86.2734C1.70251 88.1245 3.48974 89.8478 5.21311 91.5712C7.31945 92.7201 9.61727 93.5499 11.7874 94.5073C16.3193 96.2945 20.7234 98.1455 24.8723 100.635C29.0212 102.997 32.8509 105.869 36.6806 108.869C38.5954 110.337 40.4465 111.869 42.5528 113.081C44.9145 113.72 47.2761 114.422 49.7016 114.932C48.0421 113.081 46.2549 111.358 44.4677 109.699Z" fill="#FFF7ED"/>
<path d="M1.25524 71.9118C0.553128 67.1247 -0.0213454 62.3375 0.0424833 57.5504C-0.0213454 52.7632 0.61694 47.9761 1.31905 43.1889C1.57437 40.8273 1.95736 38.4018 2.02119 36.0401C1.38291 33.6147 0.808426 31.253 0.0424833 28.8275C-0.787288 31.253 -1.36171 33.6147 -2 36.0401C-1.93617 38.4018 -1.55322 40.8273 -1.2979 43.1889C-0.595787 47.9761 0.0424988 52.7632 -0.0213298 57.5504C0.0424988 62.3375 -0.531974 67.1247 -1.23409 71.9118C-1.55323 74.2735 -1.93619 76.6989 -1.93619 79.0606C-1.36173 81.4861 -0.787288 83.8478 0.0424833 86.2732C0.808426 83.8478 1.38288 81.4861 1.95734 79.0606C1.95734 76.6989 1.57438 74.2735 1.25524 71.9118Z" fill="#FFF7ED"/>
<path d="M13.064 22.7638C16.8937 19.7638 20.7234 16.8915 24.8723 14.4661C29.0212 12.0406 33.4253 10.1895 37.9572 8.40234C40.1273 7.44491 42.4252 6.61514 44.5315 5.46623C46.2549 3.74286 48.0421 2.01949 49.7016 0.168457C47.2761 0.615257 44.9145 1.31737 42.5528 2.01948C40.4465 3.23222 38.5954 4.76411 36.6806 6.23217C32.8509 9.23211 29.0212 12.1682 24.8723 14.4661C20.7234 16.8915 16.3193 18.7426 11.7874 20.5936C9.61727 21.551 7.31943 22.3808 5.27692 23.5297C3.48972 25.2531 1.70251 26.9765 0.0429688 28.8275C2.46845 28.3169 4.83012 27.6147 7.19178 26.9765C9.29812 25.7637 11.1492 24.2318 13.064 22.7638Z" fill="#FFF7ED"/>
<path d="M50.974 158.017C50.2719 153.23 49.6974 148.443 49.6974 143.655C49.6974 138.868 50.3357 134.081 51.0378 129.294C51.2932 126.932 51.6761 124.507 51.74 122.145C51.1017 119.72 50.5272 117.358 49.6974 114.933C48.9315 117.358 48.357 119.72 47.7188 122.145C47.7826 124.507 48.1656 126.932 48.4209 129.294C49.123 134.081 49.7613 138.868 49.6974 143.655C49.7613 148.443 49.123 153.23 48.4847 158.017C48.1656 160.379 47.7826 162.804 47.7826 165.166C48.357 167.591 48.9315 169.953 49.6974 172.378C50.5272 169.953 51.1017 167.591 51.6761 165.166C51.6761 162.804 51.2932 160.379 50.974 158.017Z" fill="#FFF7ED"/>
<path d="M59.082 64.1247C60.0182 64.6354 60.9543 65.146 61.8905 65.6566C66.167 67.8268 70.4435 69.997 74.5924 72.4225C75.1668 72.7416 75.6775 73.0607 76.2519 73.3799C79.7838 75.5075 83.2943 77.699 86.7836 79.9542C87.6772 80.55 88.5708 81.1244 89.4644 81.6776C90.5708 82.401 91.6984 83.1031 92.8473 83.784C95.0813 84.8052 97.1877 85.8265 99.4217 86.7201C97.5068 85.252 95.5281 83.9116 93.6133 82.5074C92.4644 81.8691 91.3154 81.2521 90.1665 80.6563C89.1878 80.1457 88.2091 79.6351 87.2304 79.1245C83.5284 77.2522 79.8689 75.316 76.2519 73.3161C75.6775 72.9969 75.103 72.6778 74.5924 72.3586C70.4435 69.997 66.4223 67.38 62.4011 64.8269C61.5075 64.2311 60.5926 63.6354 59.6565 63.0397C58.5501 62.3588 57.4437 61.678 56.3374 60.9972C54.1034 59.9759 51.9332 58.9546 49.6992 58.061C51.6141 59.5291 53.5928 60.8695 55.5715 62.2737C56.7204 62.912 57.8906 63.529 59.082 64.1247Z" fill="#FFF7ED"/>
<path d="M50.2049 43.7005C49.9496 38.9134 49.7581 34.1262 49.6943 29.3391C49.7581 24.5519 49.9496 19.7648 50.2049 14.9776C50.2688 12.616 50.4603 10.1905 50.4603 7.82884C50.2049 5.40336 50.0134 3.0417 49.6943 0.616211C49.439 3.0417 49.2475 5.40336 48.9922 7.82884C48.9922 10.1905 49.1837 12.616 49.2475 14.9776C49.5028 19.7648 49.6943 24.5519 49.6943 29.3391C49.6943 34.1262 49.5028 38.9134 49.2475 43.7005C49.1837 46.0622 48.9922 48.4876 48.9922 50.8493C49.2475 53.2748 49.439 55.6364 49.6943 58.0619C50.0134 55.6364 50.2049 53.2748 50.4603 50.8493C50.4603 48.4876 50.2688 46.0622 50.2049 43.7005Z" fill="#FFF7ED"/>
<path d="M62.4011 -6.14977C66.4223 -8.76674 70.4435 -11.3199 74.5924 -13.7454C78.7412 -16.107 82.9539 -18.341 87.2304 -20.5112C89.4006 -21.5963 91.5069 -22.6814 93.6133 -23.8303C95.5281 -25.2345 97.5068 -26.6387 99.4217 -28.043C97.1877 -27.1494 95.0813 -26.1281 92.8473 -25.1069C90.8048 -23.8941 88.8261 -22.6175 86.7836 -21.341C82.7624 -18.6602 78.7412 -16.107 74.5924 -13.7454C70.4435 -11.3837 66.167 -9.14971 61.8905 -6.97954C59.7841 -5.83063 57.6778 -4.80937 55.5715 -3.59662C53.6566 -2.1924 51.6779 -0.852001 49.6992 0.616055C51.9332 -0.277544 54.1034 -1.36263 56.3374 -2.32005C58.3799 -3.5328 60.3586 -4.8732 62.4011 -6.14977Z" fill="#FFF7ED"/>
<path d="M99.9315 129.805C99.6762 125.017 99.4847 120.23 99.4208 115.443C99.4634 114.932 99.4847 114.401 99.4847 113.847C99.5272 109.592 99.6762 105.337 99.9315 101.082C99.9953 98.72 100.187 96.2945 100.187 93.9328C99.9315 91.5074 99.74 89.1457 99.4208 86.7202C99.1655 89.1457 98.9741 91.5074 98.7188 93.9328C98.7188 96.2945 98.8464 98.72 98.9741 101.082C99.1868 105.337 99.3357 109.592 99.4208 113.847C99.4208 114.358 99.4208 114.932 99.4208 115.443C99.4208 120.23 99.2294 125.017 98.9741 129.805C98.8464 132.166 98.7188 134.592 98.7188 136.953C98.9741 139.379 99.1655 141.74 99.4208 144.166C99.74 141.74 99.9315 139.379 100.187 136.953C100.187 134.592 99.9953 132.166 99.9315 129.805Z" fill="#FFF7ED"/>
<path d="M62.4011 166.123C66.4223 163.506 70.4435 160.889 74.5924 158.527C75.2306 158.144 75.9328 157.762 76.5711 157.379C80.1029 155.421 83.656 153.549 87.2304 151.762C89.4006 150.613 91.5069 149.591 93.6133 148.379C95.5281 146.974 97.5068 145.634 99.4217 144.166C97.1877 145.06 95.0813 146.081 92.8473 147.102C90.8048 148.315 88.8261 149.655 86.7836 150.932C83.422 153.145 80.0178 155.272 76.5711 157.315C75.8689 157.698 75.2306 158.081 74.5924 158.464C70.4435 160.889 66.167 163.059 61.8905 165.229C59.7841 166.378 57.6778 167.463 55.5715 168.612C53.5928 170.017 51.6141 171.421 49.6992 172.825C51.9332 171.931 54.1034 170.91 56.3374 169.889C58.3799 168.676 60.3586 167.4 62.4011 166.123Z" fill="#FFF7ED"/>
<path d="M37.5064 165.293C33.2299 163.123 29.0173 160.889 24.8684 158.528C20.7195 156.102 16.6984 153.549 12.6772 150.932C10.6346 149.655 8.65595 148.315 6.61344 147.102C4.37944 146.081 2.20923 145.06 0.0390625 144.166C1.95392 145.634 3.93263 146.975 5.84749 148.379C7.95383 149.592 10.0602 150.613 12.2303 151.762C16.5069 153.868 20.7195 156.102 24.8684 158.528C29.0173 160.889 33.0385 163.442 37.0597 166.059C39.1022 167.336 41.0809 168.676 43.1234 169.889C45.3574 170.91 47.5275 171.932 49.6977 172.825C47.7828 171.421 45.8042 170.017 43.8893 168.612C41.783 167.464 39.6766 166.378 37.5064 165.293Z" fill="#FFF7ED"/>
<path d="M0.486157 129.805C0.230843 125.017 0.0393493 120.23 0.0393493 115.443C0.0393493 110.656 0.230843 105.869 0.486157 101.082C0.549986 98.72 0.741487 96.2945 0.741487 93.9328C0.486173 91.5074 0.294664 89.1457 0.0393493 86.7202C-0.279794 89.1457 -0.471248 91.5074 -0.726562 93.9328C-0.726562 96.2945 -0.5351 98.72 -0.471272 101.082C-0.215957 105.869 -0.0244793 110.656 0.0393493 115.443C-0.0244793 120.23 -0.215957 125.017 -0.471272 129.805C-0.5351 132.166 -0.726562 134.592 -0.726562 136.953C-0.471248 139.379 -0.279794 141.74 0.0393493 144.166C0.294664 141.74 0.486173 139.379 0.741487 136.953C0.741487 134.592 0.549986 132.166 0.486157 129.805Z" fill="#FFF7ED"/>
<path d="M12.6772 79.9542C16.6984 77.3373 20.7195 74.7841 24.8684 72.4225C29.0173 69.997 33.2299 67.763 37.5064 65.6566C39.6766 64.5077 41.783 63.4226 43.8893 62.2737C45.8042 60.8695 47.7828 59.5291 49.6977 58.061C47.5275 58.9546 45.3574 59.9759 43.1234 60.9972C41.0809 62.2099 39.1022 63.5503 37.0597 64.8269C33.0385 67.4438 29.0173 69.997 24.8684 72.3586C20.7195 74.7841 16.443 77.0181 12.2303 79.1245C10.0602 80.2734 7.95383 81.2946 5.84749 82.5074C3.93263 83.9116 1.95392 85.3158 0.0390625 86.7201C2.20923 85.8265 4.37944 84.7414 6.61344 83.784C8.65595 82.5712 10.6346 81.2308 12.6772 79.9542Z" fill="#FFF7ED"/>
</g>
<defs>
<clipPath id="clip0_1105_10303">
<rect width="99" height="172" fill="white"/>
</clipPath>
</defs>
</svg>
